<svg xmlns="http://www.w3.org/2000/svg" height="24" style="fill:#6D6F71" viewBox="0 -960 960 960" width="24"><path d="M480.235-250Q557-250 610.5-303.735q53.5-53.736 53.5-130.5Q664-511 610.265-564.5q-53.736-53.5-130.5-53.5Q403-618 349.5-564.265q-53.5 53.736-53.5 130.5Q296-357 349.735-303.5q53.736 53.5 130.5 53.5ZM480-356q-32 0-55-23t-23-55q0-32 23-55t55-23q32 0 55 23t23 55q0 32-23 55t-55 23ZM154-87q-43.725 0-74.862-31.137Q48-149.275 48-193v-482q0-43.725 31.138-74.862Q110.275-781 154-781h121l82-90h246l82 90h121q43.725 0 74.862 31.138Q912-718.725 912-675v482q0 43.725-31.138 74.863Q849.725-87 806-87H154Zm652-106v-482H638l-82-90H404l-82 90H154v482h652ZM480-434Z"/></svg>