<svg xmlns="http://www.w3.org/2000/svg" data-name="Layer 1" viewBox="0 0 861.3 648.7"><path fill="#3f3d56" d="M318.6 172.7c37.1-24 88.2-14.7 124.4 10.7a197 197 0 0 1 32.3 28.8 285 285 0 0 1 19.8 24.4l2.6 3.5a774.2 774.2 0 0 1 29.2 44.6c23.2 37.5 47 76.2 82.5 102.5 7.3 5.5 17.5 10.4 25 5.2 6.4-4.5 6.7-14 5.2-21.8-5.4-28.7-25.3-52.5-46.3-72.8-21-20.4-44.3-39-60.2-63.6-16-24.5-23.2-57.3-9.3-83 12-22.2 37.9-34.7 63-35.3 25.3-.5 49.8 9.3 71 22.7 21.4 13.5 40.1 30.5 59.7 46.4 11.8 9.6 28.3 19.2 41.1 11 10.9-6.8 11.7-23.3 5.3-34.4s-18-18-29.1-24.6L631.6 76.5a105 105 0 0 1-29-22c-7.8-9.5-12.2-22.7-7.9-34.2C599 9 610.7 2 622.7.3c12-1.4 24 1.9 35.2 6.4 42 16.8 140.6 127 167 145.8 16.9 12 34.6 27.4 36.3 48 2.1 25.9-23.5 47.2-49.3 49.7-25.7 2.6-50.7-8.6-73.7-20.5s-46.5-24.9-72.3-26.5c-25.8-1.6-54.8 12.2-60.9 37.3-5.3 21.9 8.2 44.4 25.8 58.4 13.8 11 30 18.3 45.7 26.5a254 254 0 0 1 12.8 7.1 180.3 180.3 0 0 1 30 22.5 183.7 183.7 0 0 1 25.7 29.7 179.2 179.2 0 0 1 15.6 27.1l2 4.5 1.7 4.3c7.2 18.9 10 40.1.8 57.8-9.1 17.6-29 28-48.7 29.4a89.8 89.8 0 0 1-33.8-4.4 137.2 137.2 0 0 1-23.1-10C625.2 475 598 446 573.3 416c-24.8-30-48-61.5-77.5-87-29.4-25.4-66.2-44.7-105.1-44.4-38.9.3-79 24-90 61.3-16.1-27.7-27-59.4-25.5-91.4s16.5-64.4 43.4-81.7Z"/><circle cx="469.5" cy="272" r="4.3" fill="#00abc1"/><circle cx="308.5" cy="275.8" r="6.6" fill="#FBB040"/><circle cx="785.9" cy="221.5" r="2.4" fill="#FBB040"/><circle cx="736.5" cy="90.4" r="2.4" fill="#FBB040"/><path fill="#FBB040" d="M673.7 331a26 26 0 0 1 2.8-5.6 254 254 0 0 1 12.8 7.1 180.3 180.3 0 0 1 30 22.5 26 26 0 0 1-45.6-24Z"/><circle cx="362.5" cy="249.2" r="2.5" fill="#f0f0f0"/><circle cx="668.2" cy="64.5" r="2.5" fill="#f0f0f0"/><circle cx="645.8" cy="20.1" r="2.5" fill="#f0f0f0"/><circle cx="822.5" cy="185.8" r="2.5" fill="#f0f0f0"/><circle cx="691.4" cy="189.4" r="2.5" fill="#f0f0f0"/><circle cx="621.8" cy="427.4" r="2.5" fill="#f0f0f0"/><circle cx="543.4" cy="193.3" r="2.5" fill="#f0f0f0"/><circle cx="539.9" cy="146.1" r="2.5" fill="#f0f0f0"/><path fill="none" d="M696.8 406.6a143 143 0 0 0-10.8 0c-21.3.7-35.5 6.8-39 16.8s4 23.5 20.3 37.3l5 4a80 80 0 0 1 24.5-58Z"/><path fill="#00abc1" d="M676.7 438a79.5 79.5 0 0 1 20.1-31.4l3.7-3.3a80 80 0 0 1 44.5-18.6 179.2 179.2 0 0 1 15.6 27.1l2 4.5 1.7 4.3c7.2 18.9 10 40.1.8 57.8-9.1 17.6-29 28-48.7 29.4a89.8 89.8 0 0 1-33.8-4.4 79.9 79.9 0 0 1-10.1-34l-.2-4.6a79.7 79.7 0 0 1 4.4-26.8Z"/><path fill="#e4e4e4" d="M643.7 422.2c4-11.5 19-18.3 42.2-19.1 4.7-.2 9.8 1.7 14.6.2a61 61 0 0 1 62.1 13l1.7 4.3-.7-.3a239.7 239.7 0 0 0-66.8-13.7c-3.7-.1-8.1-2.3-10.8 0-21.2 18-35.5 10.5-39 16.8-5 9.2 4 23.5 20.3 37.3l5 4c0 1.6 0 3.1.2 4.6q-4-3-7.5-5.9c-17.8-15-25.3-29.6-21.3-41.2Z"/><circle cx="731.6" cy="501.5" r="2.5" fill="#f0f0f0"/><circle cx="687.4" cy="469.4" r="2.5" fill="#f0f0f0"/><circle cx="721.2" cy="454.4" r="24.3" fill="#f0f0f0"/><path fill="#f0f0f0" d="M339.9 186.1c5.6.3 17.4 3.1 30 6.7 12.8 3.7 26.6 8.1 40.2 12.5l71.5 23.1 9.8 3.2 3.7 5-8.6-3c-12.4-4-23.2-6.6-35.2-10.3-18.5-5.6-38-13-56.9-19.9-19-6.9-40.6-14.3-54.5-17.3Zm423.5-48.8 53.6 89-50.5-90.8a1.8 1.8 0 1 0-3 1.8Z" opacity=".3"/><circle cx="737.3" cy="397.3" r="2.5" fill="#f0f0f0"/><circle cx="299.5" cy="375.5" r="16" fill="#00abc1"/><path fill="#f6a6a9" d="M290 366.7a11.4 11.4 0 0 1-7.3-15.9l-29-28.5 20.7-4.4 24.4 27.7a11.5 11.5 0 0 1-8.7 21.1Z"/><path fill="#00abc1" d="m151.5 144.8 16.2 10.6 19 4.4s15 107.2 22.3 113.7 1.1 7 3.1 15.9 6.7 27 6.7 27c-45 27.8-85 31.2-119.3 4.6a8 8 0 0 1 3.8-9.4c5.8-3.6-6.8-17.7-2-20.5s-3.7-23.9-3.7-23.9l1.5-45.3-4-7 5.7-44.5 14.7-6.6 5-15Z"/><path fill="#2f2e41" d="m158.5 148.5 26.7 8.9s29.4-3.1 30.6 40.8-4.3 67.4-4.3 67.4 61.3 123.2-5 86.8L187 276l-20-120Z"/><path fill="#2f2e41" d="m185.3 245.5 13.8-1.9s1.3 20.8 8 24 4.3 3.7 5 7-5.8 12.6-.6 15 51 60 51 60l27-25c-1.8-5.1-10.7-1-11.3-6.3-.7-8.1-14.8-30.1-17.9-33s-1.8-7.7-3.3-14.4-.5-.5-3.1-11.6-37.8-68-39-78.2-15.6-16.4-15.6-16.4l-11.1 2.6Z"/><path fill="#f6a6a9" d="m68.6 616 16.2 4.3 24.3-60.7-24-6.3L68.6 616z"/><path fill="#2f2e41" d="m63.6 632.8 50 13.1.1-.6a20.1 20.1 0 0 0-14.3-24.6l-7.3-9.3-18.9 2.5-4.4-1.2Z"/><path fill="#f6a6a9" d="M152 628.2h16.8l8-64.9H152v64.9z"/><path fill="#2f2e41" d="M151.4 645.7H203v-.6a20.1 20.1 0 0 0-20.2-20.2l-9.4-7.1-17.6 7.1h-4.5Zm-41.5-327.9c-4 5-2 22.3-2 22.3s-7.1 55.9-4 61-2.1 9-5.2 16.2-6 24.4-6 24.4c-17.3 14.2-16.3 79.2-16.3 79.2l-6.1 57.9c2 6 30.5 7 34.5 6s43.7-144.1 43.7-144.1l-2 144.2c0 6.2 27.4 3 33.5 3s44.7-248.8 44.7-248.8V325l-5.1-7.1s-105.6-5-109.7 0Z"/><path fill="#2f2e41" d="m119.5 151.5-24.9 16-12 10 16 102s-24.4 92.7 14 87 36.1-89 36.1-89Z"/><path fill="#f6a6a9" d="M153 296.4a11.4 11.4 0 0 1-16.6-5.8l-40.7 1 11.2-18 36.9 1.9a11.5 11.5 0 0 1 9.1 21Z"/><circle cx="132.6" cy="105.6" r="32.1" fill="#f6a6a9"/><path fill="#2f2e41" d="M96.2 84.5a17.7 17.7 0 0 1 17-8.2 23.1 23.1 0 0 1 38.7-13.5 7.2 7.2 0 0 1 7-.7 14.8 14.8 0 0 1 5.7 4.6 33.3 33.3 0 0 1 4.7 33.8c.8-3-2.1-5.7-5-6.3-3-.7-6.1 0-9.1-.5-3.9-.5-7.3-2.7-11.2-3.2-3.2-.5-6.4.4-9.6 1.2-3.1.8-6.4 1.7-9.6 1.3-3.2-.4-7.4 11.9-7.3 20.5 0 1.6-.4 3.7-2 4-2 .5-3-2.2-5-3a3.5 3.5 0 0 0-4.2 2.3 5.7 5.7 0 0 0 1 5 16.7 16.7 0 0 0 4.1 3.6l-.7.6c-1.3 1.7-4 1.8-5.8.7a12.5 12.5 0 0 1-4.2-4.7c-3.4-5.7-6.4-11.8-7.6-18.3s-.5-13.6 3.1-19.2Zm11.3 96-14.4-12.3s-16.8 5.2-19.7 16.3a184.2 184.2 0 0 0-37.9 100c29.4 11.1 65.4 15 104 16l-8-30-55-10Z"/><path fill="#f2f2f2" d="m56.4 631.6-7.7-12.4-1.6 7-.7 3.8c-2.2-1.9-4.6-3.6-6.8-5.3l-21-15.2 2.2 12.7a90.1 90.1 0 0 0 7.3 25.3h32.5a10.5 10.5 0 0 0 .5-2.2.8.8 0 0 0 0-.2c.6-4.8-2.1-9.4-4.7-13.5ZM344 617.3l14.6-23.4 2.9 13.4 1.5 7c4.1-3.5 8.5-6.7 12.8-9.9l39.7-28.8-4.1 24a170.5 170.5 0 0 1-11.5 43.4l-2.3 4.5H336a19.8 19.8 0 0 1-1-4.2 1.5 1.5 0 0 1 0-.3c-1-9.2 4-17.8 9-25.7Z"/><path fill="#f2f2f2" d="M332.5 648h-67a11.5 11.5 0 0 1-11.5-11.5v-235a11.5 11.5 0 0 1 11.5-11.5h67a11.5 11.5 0 0 1 11.5 11.5v235a11.5 11.5 0 0 1-11.5 11.5Z"/><path fill="#3f3d56" d="M316.7 396h-34.3a4.3 4.3 0 0 1-4.4-4.3v-12.3a4.3 4.3 0 0 1 4.4-4.4h34.3a4.3 4.3 0 0 1 4.3 4.4v12.3a4.3 4.3 0 0 1-4.3 4.3Z"/><path fill="#cacaca" d="m415 648.4-413.8.3a1.2 1.2 0 0 1 0-2.4l413.7-.3a1.2 1.2 0 0 1 0 2.4Z"/></svg>